<?xml version="1.0" encoding="utf-8"?>
<!-- Generator: Adobe Illustrator 16.0.0, SVG Export Plug-In . SVG Version: 6.00 Build 0)  -->
<!DOCTYPE svg PUBLIC "-//W3C//DTD SVG 1.1//EN" "http://www.w3.org/Graphics/SVG/1.1/DTD/svg11.dtd">
<svg version="1.1" id="Layer_1" xmlns="http://www.w3.org/2000/svg" xmlns:xlink="http://www.w3.org/1999/xlink" x="0px" y="0px"
	width="600px" height="589px" viewBox="0 0 698.3 600" style="enable-background:new 0 0 698.3 600;" xml:space="preserve">
<style type="text/css">
	.c1{fill:#7D8FCE;}
	.st1{fill:#AEBFC4;}
	.st2{fill:#E2A77A;}
	.st3{fill:#E46E3D;}
	.st4{fill:#4A66B0;}
	.st5{fill:#8071F2;}
	.st6{fill:#8579DB;}
	.st7{fill:#B56F28;}
	.st8{opacity:0.3;fill:#D1BDD1;}
	.st9{fill:#8CA52F;}
	.st10{fill:#BCCACE;}
	.st11{opacity:0.5;fill:#FFBC47;}
	.st12{fill:#F46554;}
	.st13{fill:#F8B31F;}
	.st14{opacity:0.42;fill:#FFFFFF;}
	.st15{fill:#C5D2D6;}
	.st16{fill:#2B3E75;}
	.st17{fill:#FABB85;}
	.st18{fill:#FAFAFA;}
	.st19{opacity:0.2;fill:#9B87FF;}
	.st20{fill:#C9893B;}
	.st21{opacity:0.4;}
	.st22{opacity:0.6;}
	.st23{fill:#FFBC47;}
	.st24{fill:#FFFFFF;}
	.st25{fill:#667DBF;}
	.st26{fill:#9B87FF;}
	.st27{fill:#9CBEC1;}
	.st28{fill:#9DCDFE;}
	.st29{opacity:0.21;fill:#FFFFFF;}
	.st30{fill:#D2E2ED;}
	.st31{fill:#D6E3E8;}
	.st32{fill:#A4CA33;}
	.st33{fill:#0B2E4E;}

</style>
<g id="XMLID_3_">
	<g id="XMLID_25_">
		<g id="XMLID_583_">
			<path id="XMLID_935_" class="st31" d="M680.3,396.1c-0.6,5.4-1.5,10.8-2.6,16c-2.2,12-5.5,23.7-9.9,35.1
				c-1.4,3.8-2.9,7.6-4.5,11.4c-1.4,2.8-2.7,5.8-4.1,8.6c0,0,0,0,0,0c-1.7,3.4-3.5,6.6-5.3,9.9c-2.3,4.1-4.8,8.2-7.4,12.2
				c-3.4,5.1-7,10.2-10.8,15.1l-3.5,4.3v0c-2.5,3-5,6.1-7.7,9c-0.2,0.2-0.4,0.4-0.6,0.6c-6.8,7.4-14.1,14.5-22,21.4
				c-0.4,0.3-0.7,0.6-1,0.8l0,0.1c-24.6,20.8-46.4,27.9-67.7,28.5h0c-4.6,0.1-9.1,0-13.7-0.4c-7.6-0.7-15.2-2-23-3.5
				c-23.9-4.9-49-12.5-78.4-12.6c-1.4,0-2.8,0-4.2,0c-0.3,0-0.5,0-0.8,0c-3.8,0.1-7.7,0.3-11.6,0.7c-6.7,0.6-13.6,1.7-20.7,3.3
				c-4.3,0.9-8.8,2.1-13.3,3.5c-3.6,1.1-7.2,2.3-11,3.7c-1.2,0.4-2.3,0.8-3.4,1.3c-0.2,0.1-0.4,0.1-0.7,0.2
				c-6.2,2.5-12.2,4.7-18.2,6.8c-2.2,0.8-4.5,1.7-6.7,2.4c-5.1,1.9-10,3.5-14.9,5.1c-2.5,0.8-4.9,1.6-7.4,2.3
				c-27.7,8.9-52.9,14.5-75.8,16.9c-9.8,1-19.1,1.3-27.9,1c-0.9,0-1.8-0.1-2.7-0.2c-2.4-0.1-4.8-0.3-7.1-0.5
				c-1.7-0.2-3.4-0.4-5.1-0.7c-2-0.2-3.9-0.5-5.8-0.9c-1.1-0.2-2.1-0.4-3.2-0.7c-1.6-0.2-3.1-0.7-4.7-1
				c-19.3-4.9-35.8-14.4-49.3-29.1c-11.2-12.3-20.4-28.3-27.3-48.4c-0.7-2.1-1.4-4.3-2.1-6.5c-0.6-1.8-1.1-3.6-1.6-5.5
				c-0.2-0.7-0.4-1.3-0.5-2c-16.6-62.4,28.3-95.3,56.5-137.5c3-4.6,5.9-9.3,8.5-14.1c4.9-9.3,8.8-19.2,10.8-30.1
				c6.4-33.8-22.1-68-26.5-103.7c-1.3-10.3-1.3-20.8,0.2-31.5c0.5-3.7,1.2-7.4,2.1-11.1c8.1-35.5,32.3-70.4,77.6-91.7
				c3.6-1.7,7.3-3.4,11-4.9c0.7-0.3,1.3-0.6,2-0.8c6.1-2.7,12.3-5.1,18.4-7.4c1.4-0.6,2.9-1.1,4.4-1.6c0.5-0.1,0.9-0.3,1.4-0.5
				c0.4-0.1,0.7-0.3,1.1-0.4c3.3-1.2,6.7-2.3,10-3.4c64.7-20.9,129.4-23.1,187.3-7.9c4.2,1,8.4,2.3,12.5,3.5
				c2.2,0.7,4.4,1.3,6.6,2.1c24.9,8.4,48.3,20.2,69.5,35.2c4,2.7,7.7,5.5,11.5,8.5c21.7,17.2,41,38,57.1,62.2c4,6,7.8,12,11.5,18
				c6.2,10.3,12,20.6,17.1,30.8C673.9,280,687,340.7,680.3,396.1z"/>
			
				<ellipse id="XMLID_579_" transform="matrix(-0.9927 0.1208 -0.1208 -0.9927 163.9836 621.163)" class="st30" cx="63.2" cy="315.6" rx="63.1" ry="68.7"/>
		</g>
		<g id="XMLID_117_">
			<path id="XMLID_389_" class="st27" d="M92.7,475.2l-13.3-0.3c-6.5-9-12.1-20.4-15.2-34.5l10.4-0.7l-11.3-4
				c-1.1-6.5-1.8-13.4-1.8-21.1c0,0,18.6,1.5,37.7,11.3l0.9,8.9l1.8-7.4c11.4,6.4,22.6,15.9,29.8,30.1l-3.4,14.4l5.8-9.2
				c2.4,5.9,4.1,12.4,4.9,19.8c0.5,14.2,0,22.8,0,22.8h-21.8c0,0-19.1-7-34.9-26.7L92.7,475.2z"/>
			<path id="XMLID_329_" class="st28" d="M134.7,489c0.9-8.4,3.4-15.3,6.9-21l3.2,6.7l-1-9.8c6.7-9.2,16-15,24.5-18.5l0.6,6l1.7-7
				c10.5-4,19.2-4.7,19.2-4.7c0.1,10.7-1.8,19.7-4.6,27.3l-5.5,1.8l4.7,0.5c-4.4,10.6-10.7,18.3-16.7,23.7l-10.9,0.6l7.1,2.6
				c-7.4,5.7-13.5,7.9-13.5,7.9h-15.5C134.7,505.2,134.3,499.1,134.7,489z"/>
			<path id="XMLID_167_" class="st14" d="M173.4,457.3c3.4-3.2,10.5-10.7,10.5-10.7s-8.4,5.6-11.8,8.7
				c-28.2,26.6-34.1,48.6-34.3,49.6l1.1,0.3h1.2C140.9,502.5,147.7,481.8,173.4,457.3z"/>
			<path id="XMLID_158_" class="st29" d="M131,505.2h2.5c-2.1-7.1-15.1-46-54.8-77.5c-3.3-2.6-11.1-6.8-11.1-6.8s6.2,5.9,9.3,8.4
				C115.1,459.5,128.4,496.7,131,505.2z"/>
		</g>
		<path id="XMLID_26_" class="st7" d="M624.5,511.9v5.9c-6.9,7.6-14.4,14.9-22.6,22c-0.4,0.3-0.7,0.6-1,0.8l0,0
			c-24.6,20.8-46.4,27.9-67.7,28.5h0c-4.6,0.1-9.1,0-13.7-0.4c-7.6-0.7-15.2-2-23-3.5c-23.9-4.9-49-12.5-78.4-12.6
			c-1.4,0-2.8,0-4.2,0c-0.3,0-0.5,0-0.8,0c-3.8,0.1-7.7,0.3-11.6,0.7c-6.7,0.6-13.6,1.7-20.7,3.3c-4.3,0.9-8.8,2.1-13.3,3.5
			c-3.6,1.1-7.2,2.3-11,3.7c-1.2,0.4-2.3,0.8-3.5,1.3c-0.2,0.1-0.4,0.1-0.7,0.2c-6.2,2.5-12.2,4.7-18.2,6.8
			c-2.2,0.8-4.5,1.7-6.7,2.4c-5.1,1.9-10,3.5-14.9,5.1c-2.5,0.8-4.9,1.6-7.4,2.3c-27.7,8.9-52.9,14.5-75.8,16.9
			c-9.8,1-19.1,1.3-27.9,1c-0.9,0-1.8-0.1-2.7-0.2c-2.4,0-4.8-0.3-7.1-0.5c-1.7-0.2-3.4-0.4-5.1-0.7c-2-0.2-3.9-0.5-5.8-0.9
			c-1.1-0.2-2.1-0.4-3.2-0.7c-1.6-0.2-3.1-0.7-4.7-1c-19.3-4.9-35.8-14.4-49.3-29.1c-12.4-13.7-22.3-31.7-29.5-54.9H624.5z"/>
		<path id="XMLID_24_" class="st20" d="M635.7,504.4l-3.5,4.3v0.1c-2.5,3-5,6.1-7.7,9c-0.2,0.2-0.4,0.4-0.6,0.6H96
			c-0.7-2.1-1.4-4.3-2.1-6.5c-0.6-1.8-1.1-3.6-1.6-5.5c-0.2-0.7-0.4-1.3-0.5-2H635.7z"/>
		<path id="XMLID_17_" class="st25" d="M336.1,234.9c0-11.3,9.1-20.4,20.4-20.4c11.3,0,20.4,9.1,20.4,20.4
			c0,11.3-9.1,20.4-20.4,20.4C345.3,255.3,336.1,246.2,336.1,234.9z"/>
		<path id="XMLID_15_" class="st33" d="M341.9,222.1c0,0-33.1,1.7-35.1-26.9c-2-21.8,14.7-46.7,55.3-45.3c0,0,9.7-6.6,21.8-8.5
			c30.4-4.8,48.4,5.3,57.2,20.6c11.9,15.2,18.4,40.6,21.5,55.9c1.9,9.4,5.3,18.4,9.9,26.8c18.5,33.3,63.7,117.1,61.1,134.9
			c-5.3,35.1-174.2-25.1-174.2-25.1s-10.5-36.7-4.8-111C350.1,239.2,341.9,222.1,341.9,222.1z"/>
		<path id="XMLID_16_" class="st32" d="M379,302.2c0,0-25.5,5.1-39.2,26.7c-13.6,21.6-43.1,78.6-43.1,78.6l23.3,42.9l39.3-51.1
			l17.7,95.7l25.5,13.5l134.8-2.1c0,0-16.7-161.3-19.3-176.3c-2.5-15-17.9-34.9-80.2-31.5L379,302.2z"/>
		<path id="XMLID_14_" class="st17" d="M341.2,222c0,0,5.1,49.9,35.1,53.5c0,0,5.7,12.8,3.7,26.1c0,0-8.4,26.1,17.7,28.6
			c26.1,2.5,39.9-31.4,39.9-31.4s-28.3-0.9-26.6-58.1l1.5-28c0,0-6.4,12.6-30.7-9.5C381.8,203.2,370.5,220.7,341.2,222z"/>
		<path id="XMLID_13_" class="st16" d="M410.1,242.6c-1.1-0.5-2.3,0.1-2.8,1.2c-0.3,0.6-0.8,1.7-1.7,3.2c-1.5,2.4-3.3,4.7-5.4,7
			c-6,6.4-13.5,10.1-22.6,10.1c-1.2,0-2.1,0.9-2.1,2.1c0,1.2,0.9,2.1,2.1,2.1c10.4,0,18.9-4.3,25.7-11.5c2.4-2.5,4.3-5.1,5.9-7.8
			c1-1.6,1.6-2.9,2-3.7C411.6,244.3,411.2,243.1,410.1,242.6z"/>
		<path id="XMLID_12_" class="st25" d="M369.8,146.2c55.3,5.7,52,58,52,58l-0.8,10.4l-8.7-6.6c0,0,4.9-33.3-24.2-49.6
			c-7.4-4.2-17.1-7.2-29.6-8.3C358.5,150,364.2,145.6,369.8,146.2z"/>
		<path id="XMLID_11_" class="st25" d="M366.6,266.1c0-2.4,2.4-4.3,5.3-4.3s5.3,1.9,5.3,4.3c0,2.4-2.4,4.3-5.3,4.3
			S366.6,268.5,366.6,266.1z"/>
		<path id="XMLID_10_" class="st25" d="M394,227.5c0-11.3,9.1-20.4,20.4-20.4s20.4,9.1,20.4,20.4c0,11.3-9.1,20.4-20.4,20.4
			S394,238.8,394,227.5z"/>
		<path id="XMLID_111_" class="st0" d="M402.8,227.5c0-7,5.7-12.6,12.6-12.6s12.6,5.7,12.6,12.6c0,7-5.7,12.6-12.6,12.6
			S402.8,234.5,402.8,227.5z"/>
		<path id="XMLID_9_" class="st17" d="M421.2,462.6c0,0-18.7-14-25.4-11.1c-6.6,2.9-26.7,18.7-21.6,24.2c5,5.5,19.7-6.9,19.7-6.9
			s2.8,13.3,11.5,14.5C424,486.1,421.2,462.6,421.2,462.6z"/>
		<path id="XMLID_8_" class="st32" d="M502.2,309c0,0,21.8,8.5,47.5,62.4c25.8,53.8,38.3,88.4,19.8,109.6c-5.3,6.1-20,9.2-38.3,10.5
			c-46,3.4-114.7-4.3-114.7-4.3l-0.3-33.4l101.4-11.1c0,0-27.5-36.8-35.1-91.2L502.2,309z"/>
		<path id="XMLID_83_" class="st9" d="M529.1,491.7c-9.4,0.9-18.8,1.3-28.2,1.5c-9.4,0.2-18.8,0.1-28.2-0.2
			c-18.8-0.7-37.6-1.6-56.4-3.6c-1.1-0.1-2-1.1-2-2.2v0l-0.5-33.4c0-1.2,0.9-2.3,2.1-2.4l0,0l25.3-2.9l25.4-2.6l50.7-5.3l-1.5,3.4
			c-2.5-3.5-4.6-7-6.7-10.6c-2-3.6-4-7.3-5.8-11c-3.7-7.4-7-15-9.8-22.8c-0.7-1.9-1.4-3.9-2-5.9c-0.6-2-1.3-3.9-1.8-5.9l-1.7-6
			c-0.6-2-1-4-1.5-6c-0.4-2-1-4-1.3-6l-1.1-6.1c-0.8-4-1.1-8.2-1.7-12.2c0.9,4,1.5,8.1,2.5,12.1l1.4,6c0.5,2,1.1,3.9,1.7,5.9
			c0.6,2,1.1,3.9,1.8,5.9l2,5.8c0.6,1.9,1.4,3.8,2.1,5.8c0.7,1.9,1.4,3.8,2.2,5.7c3,7.6,6.5,15,10.3,22.2c1.9,3.6,4,7.1,6.1,10.6
			c2.1,3.4,4.4,6.9,6.7,10.1c0.7,1,0.5,2.3-0.4,3c-0.3,0.2-0.7,0.4-1.1,0.4l-50.7,5.8l-25.3,2.9l-25.4,2.6l2.1-2.4l0.1,33.4l-2-2.2
			c18.6,2,37.3,3.9,56,5.1c9.4,0.5,18.7,1.1,28.1,1.4C510.3,491.8,519.7,491.9,529.1,491.7z"/>
		<path id="XMLID_1_" class="st2" d="M398.6,269.6c-12,7.3-22.4,5.6-22.5,5.8c0.1,0,0.2,0.1,0.3,0.2c0,0,1.4,3.3,2.6,8.3
			C389.4,279.4,398.6,269.6,398.6,269.6z"/>
		<path id="XMLID_5_" class="st25" d="M464.1,507.7l-274.4-0.1c-6.2,0-13.8-4.5-16.8-9.9l-68.1-122.4c-2.7-4.9-0.4-8.9,5.3-8.9
			l159.1-0.1c5.6,0,12.5,4,15.3,8.9l63.4,110.6c1.6,2.7,5.3,5,8.5,5l99.6,0.7c4.5,0,8.4,3.7,8.6,8.2l0.3,7.3
			C464.8,507.4,464.5,507.7,464.1,507.7z"/>
		<g id="XMLID_100_">
			<path id="XMLID_148_" class="st5" d="M281.7,0h84.5c15.6,0,28.2,12.6,28.2,28.2v26.8c0,15.6-12.6,28.2-28.2,28.2h-6.4l15.2,31.8
				l-40.4-31.8h-52.8c-15.6,0-28.2-12.6-28.2-28.2V28.2C253.5,12.6,266.1,0,281.7,0z"/>
			<g id="XMLID_101_">
				<g>
					<g id="XMLID_126_">
						<path class="st24" d="M297.5,41.2c0,4.4-3.5,7.9-7.9,7.9c-4.4,0-7.9-3.5-7.9-7.9c0-4.4,3.5-7.9,7.9-7.9
							C294,33.3,297.5,36.8,297.5,41.2z"/>
					</g>
					<g id="XMLID_125_">
						<path class="st24" d="M331.3,41.2c0,4.4-3.5,7.9-7.9,7.9c-4.4,0-7.9-3.5-7.9-7.9c0-4.4,3.5-7.9,7.9-7.9
							C327.7,33.3,331.3,36.8,331.3,41.2z"/>
					</g>
					<g id="XMLID_123_">
						<path class="st24" d="M366.1,41.2c0,4.4-3.5,7.9-7.9,7.9c-4.4,0-7.9-3.5-7.9-7.9c0-4.4,3.5-7.9,7.9-7.9
							C362.6,33.3,366.1,36.8,366.1,41.2z"/>
					</g>
				</g>
			</g>
		</g>
		<g id="XMLID_2_">
			<g id="XMLID_103_">
				<g>
					<g id="XMLID_56_">
						<path class="st13" d="M677.7,354.4h-99.5c-11.4,0-20.7-9.3-20.7-20.7V292c0-11.4,9.3-20.7,20.7-20.7h13.9l-37.8-35.7
							c-0.7-0.6,0.1-1.7,0.9-1.2l62.1,37h60.3c11.4,0,20.7,9.3,20.7,20.7v41.8C698.3,345.2,689.1,354.4,677.7,354.4z"/>
					</g>
				</g>
			</g>
			<g id="XMLID_37_">
				<g id="XMLID_113_">
					<path id="XMLID_159_" class="st24" d="M625.3,328.8c0-1.6,1.3-2.8,2.8-2.8h39.1c1.6,0,2.8,1.3,2.8,2.8l0,0
						c0,1.6-1.3,2.8-2.8,2.8h-39.1C626.6,331.7,625.3,330.4,625.3,328.8L625.3,328.8z"/>
					<path id="XMLID_137_" class="st24" d="M585.8,328.8c0-1.6,1.3-2.8,2.8-2.8H615c1.6,0,2.8,1.3,2.8,2.8l0,0
						c0,1.6-1.3,2.8-2.8,2.8h-26.4C587,331.7,585.8,330.4,585.8,328.8L585.8,328.8z"/>
				</g>
				<g id="XMLID_108_">
					<path id="XMLID_110_" class="st24" d="M645.4,312.9c0-1.6-1.3-2.8-2.8-2.8h-54c-1.6,0-2.8,1.3-2.8,2.8l0,0
						c0,1.6,1.3,2.8,2.8,2.8h54C644.2,315.8,645.4,314.5,645.4,312.9L645.4,312.9z"/>
					<path id="XMLID_109_" class="st24" d="M670.1,312.9c0-1.6-1.3-2.8-2.8-2.8h-11.5c-1.6,0-2.8,1.3-2.8,2.8l0,0
						c0,1.6,1.3,2.8,2.8,2.8h11.5C668.8,315.8,670.1,314.5,670.1,312.9L670.1,312.9z"/>
				</g>
				<g id="XMLID_104_">
					<path id="XMLID_107_" class="st24" d="M625.3,297c0-1.6,1.3-2.8,2.8-2.8h39.1c1.6,0,2.8,1.3,2.8,2.8l0,0c0,1.6-1.3,2.8-2.8,2.8
						h-39.1C626.6,299.8,625.3,298.6,625.3,297L625.3,297z"/>
					<path id="XMLID_105_" class="st24" d="M585.8,297c0-1.6,1.3-2.8,2.8-2.8H615c1.6,0,2.8,1.3,2.8,2.8l0,0c0,1.6-1.3,2.8-2.8,2.8
						h-26.4C587,299.8,585.8,298.6,585.8,297L585.8,297z"/>
				</g>
			</g>
		</g>
		<g id="XMLID_334_">
			<path id="XMLID_425_" class="st32" d="M662.5,196.6c0,17.6-14.3,32-32,32c-17.7,0-32-14.3-32-32c0-17.7,14.3-32,32-32
				C648.2,164.6,662.5,178.9,662.5,196.6z"/>
			<g id="XMLID_335_">
				<g>
					<path id="XMLID_50_" class="st24" d="M639.8,184.3c0,0-9.1,11.6-13.2,16.7c-2.5-2.6-5.2-5.4-5.2-5.4c-1.7-1.7-4.4-1.8-6.1-0.1
						c-1.7,1.6-1.8,4.4-0.1,6.1l8.7,9c0.9,0.9,2.1,1.4,3.3,1.3c1.3-0.1,2.4-0.7,3.2-1.6l16.3-20.6c1.5-1.9,1.2-4.6-0.7-6.1
						C644,182.1,641.2,182.4,639.8,184.3z"/>
				</g>
			</g>
		</g>
		<g id="XMLID_560_">
			<g id="XMLID_627_">
				<path id="XMLID_661_" class="st3" d="M288.3,235.7c1-0.3,1.5-0.3,2.8-0.3l0,0c0,0,0.1,0,0.1,0c0,0,0.1,0,0.1,0l0,0
					c1.3,0,1.8,0,2.8,0.3c0.7,0.2,1.3,0.4,1.9,0.7c0-0.2,0-0.3,0-0.5v-3.4c0-2.7-2.2-4.9-4.9-4.9c-2.7,0-4.9,2.2-4.9,4.9v3.4
					c0,0.2,0,0.3,0,0.5C287,236.2,287.6,235.9,288.3,235.7z"/>
				<path id="XMLID_660_" class="st3" d="M291.2,278c-0.1,0-0.2,0-0.2,0h-7.8v0.6c0,4.1,3.5,7.4,7.9,7.4c4.4,0,7.9-3.3,7.9-7.4V278
					H291.2z"/>
				<path id="XMLID_637_" class="st23" d="M311.3,274.3c-1.5-1.6-4.4-5.3-4.4-5.3s0-13.6,0-17.4c0-6.6-3.1-13.3-12.8-15.8
					c-1-0.3-1.5-0.3-2.8-0.3l0,0c0,0-0.1,0-0.1,0c0,0-0.1,0-0.1,0l0,0c-1.3,0-1.8,0-2.8,0.3c-9.7,2.5-12.8,9.1-12.8,15.8
					c0,3.9,0,17.4,0,17.4s-2.9,3.7-4.4,5.3c-1.5,1.6-1.4,3.7,1.3,3.7h18.7c0,0,0.1,0,0.2,0H310C312.6,278,312.8,275.9,311.3,274.3z"
					/>
				<path id="XMLID_632_" class="st11" d="M306.9,269c0,0,0-13.6,0-17.4c0-5.8-2.4-11.7-9.6-14.7c1.5,1.4,6.5,6.5,6.5,12.6v12.9
					c0,2.9-2.2,7.4-9.9,7.4c-0.7,0-0.7,0.7,0,0.7h14.2C307.4,269.6,306.9,269,306.9,269z"/>
			</g>
			<path id="XMLID_621_" class="st23" d="M292.8,300.2c0,0.9-0.7,1.6-1.6,1.6l0,0c-0.9,0-1.6-0.7-1.6-1.6v-7.9
				c0-0.9,0.7-1.6,1.6-1.6l0,0c0.9,0,1.6,0.7,1.6,1.6V300.2z"/>
			<g id="XMLID_570_">
				<path id="XMLID_612_" class="st23" d="M307.6,294.4c0.6,0.6,0.6,1.6,0,2.3l0,0c-0.6,0.6-1.6,0.6-2.3,0l-5.6-5.6
					c-0.6-0.6-0.6-1.7,0-2.3l0,0c0.6-0.6,1.6-0.6,2.3,0L307.6,294.4z"/>
				<path id="XMLID_571_" class="st23" d="M274.7,294.4c-0.6,0.6-0.6,1.6,0,2.3l0,0c0.6,0.6,1.6,0.6,2.3,0l5.6-5.6
					c0.6-0.6,0.6-1.7,0-2.3l0,0c-0.6-0.6-1.6-0.6-2.3,0L274.7,294.4z"/>
			</g>
		</g>
		<path id="XMLID_421_" class="st27" d="M103,333.7l0-38.5c0-4-3.4-7.4-7.4-7.4l-64.5,0c-2,0-3.8,0.8-5.2,2.2
			c-1.4,1.4-2.2,3.2-2.2,5.2v38.5c0,2.9,1.7,5.5,4.3,6.7c1,0.5,2,0.7,3.1,0.7h64.5C99.7,341.1,103,337.8,103,333.7z M95.6,291.8
			c0.4,0,0.8,0.1,1.1,0.2c-3.7,3-21.5,16.2-33.5,25c-12.1-8.9-30-22.3-33.4-25c0.4-0.1,0.8-0.3,1.2-0.3L95.6,291.8z M31.1,337
			c-0.1,0-0.2-0.1-0.2-0.1l18.9-17.7c0.6-0.5,0.6-1.4,0.1-1.9c-0.5-0.5-1.4-0.6-1.9,0l-19.5,18.2c-0.4-0.6-0.7-1.2-0.7-1.9v-38.3
			c5.3,4.3,23.1,17.6,34.3,25.8c0.1,0.1,0.2,0.1,0.3,0.2c0.7,0.3,1.4,0.2,2-0.2c11.2-8.2,29.2-21.5,34.5-25.8l0,38.3
			c0,0.7-0.3,1.3-0.7,1.9l-19.5-18.2c-0.5-0.5-1.4-0.5-1.9,0.1s-0.5,1.4,0,1.9L95.9,337c-0.1,0-0.2,0-0.3,0L31.1,337z"/>
		<path id="XMLID_379_" class="st30" d="M233.2,438.1c1.5,6.4-2.5,11.7-8.9,11.7c-6.4,0-12.9-5.2-14.4-11.7
			c-1.5-6.4,2.5-11.7,8.9-11.7C225.3,426.5,231.7,431.7,233.2,438.1z"/>
		<path id="XMLID_445_" class="st4" d="M172.9,497.7c3,5.4,10.6,9.9,16.8,9.9l274.4,0.1c0.4,0,0.8-0.3,0.7-0.8l-0.3-7.3
			c-0.2-4.5-4.1-8.2-8.6-8.2l-99.6-0.7H169L172.9,497.7z"/>
		<path id="XMLID_446_" class="st25" d="M464.1,507.7c0.4,0,0.8-0.3,0.7-0.8l-0.3-7.3c-0.2-4.5-4.1-8.2-8.6-8.2l-99.6-0.7v16.9
			L464.1,507.7z"/>
		<polygon id="XMLID_442_" class="st9" points="350,411.3 359.2,399.3 354.4,371.1 		"/>
		<g id="XMLID_343_">
			<g id="XMLID_440_">
				<path id="XMLID_443_" class="st27" d="M685.8,427.6c1.4,0,2.5,1.1,2.5,2.5c0,1.4-1.1,2.5-2.5,2.5h-24.9c-1.4,0-2.5-1.1-2.5-2.5
					c0-1.4,1.1-2.5,2.5-2.5H685.8z"/>
			</g>
			<g id="XMLID_422_">
				<path id="XMLID_427_" class="st27" d="M650.3,427.6c1.4,0,2.5,1.1,2.5,2.5c0,1.4-1.1,2.5-2.5,2.5h-4.6c-1.4,0-2.5-1.1-2.5-2.5
					c0-1.4,1.1-2.5,2.5-2.5H650.3z"/>
			</g>
		</g>
		<g id="XMLID_690_">
			<g id="XMLID_712_">
				<path id="XMLID_713_" class="st27" d="M487.4,72.1c-1.4,0-2.5,1.1-2.5,2.5c0,1.4,1.1,2.5,2.5,2.5h24.9c1.4,0,2.5-1.1,2.5-2.5
					c0-1.4-1.1-2.5-2.5-2.5H487.4z"/>
			</g>
			<g id="XMLID_698_">
				<path id="XMLID_709_" class="st27" d="M522.9,72.1c-1.4,0-2.5,1.1-2.5,2.5c0,1.4,1.1,2.5,2.5,2.5h4.6c1.4,0,2.5-1.1,2.5-2.5
					c0-1.4-1.1-2.5-2.5-2.5H522.9z"/>
			</g>
		</g>
		<path id="XMLID_720_" class="st27" d="M324.6,125.9c0,2.6-2.1,4.6-4.6,4.6c-2.6,0-4.6-2.1-4.6-4.6c0-2.6,2.1-4.6,4.6-4.6
			C322.6,121.2,324.6,123.3,324.6,125.9z"/>
		<path id="XMLID_28_" class="st27" d="M433.4,98.8c0,2.6-2.1,4.6-4.6,4.6s-4.6-2.1-4.6-4.6c0-2.6,2.1-4.6,4.6-4.6
			S433.4,96.2,433.4,98.8z"/>
		<path id="XMLID_721_" class="st27" d="M115.3,214.1c0,2.6-2.1,4.6-4.6,4.6c-2.6,0-4.6-2.1-4.6-4.6s2.1-4.6,4.6-4.6
			C113.2,209.5,115.3,211.6,115.3,214.1z"/>
		<path id="XMLID_717_" class="st27" d="M621.4,390.4h-4.2l-1.2,1.2v4.2c0,1.3-1.1,2.4-2.4,2.4c-1.3,0-2.4-1.1-2.4-2.4v-4.2
			l-1.1-1.2h-4.3c-1.3,0-2.4-1.1-2.4-2.4c0-1.3,1.1-2.4,2.4-2.4h4.3l1.1-1.2v-4.2c0-1.3,1.1-2.4,2.4-2.4c1.3,0,2.4,1.1,2.4,2.4v4.2
			l1.2,1.2h4.2c1.3,0,2.4,1.1,2.4,2.4C623.8,389.3,622.7,390.4,621.4,390.4z"/>
		<path id="XMLID_718_" class="st27" d="M250.1,332.9h-4.2l-1.2,1.2v4.2c0,1.3-1.1,2.4-2.4,2.4c-1.3,0-2.4-1.1-2.4-2.4V334l-1.1-1.2
			h-4.3c-1.3,0-2.4-1.1-2.4-2.4c0-1.3,1.1-2.4,2.4-2.4h4.3l1.1-1.2v-4.2c0-1.3,1.1-2.4,2.4-2.4c1.3,0,2.4,1.1,2.4,2.4v4.2l1.2,1.2
			h4.2c1.3,0,2.4,1.1,2.4,2.4C252.5,331.8,251.4,332.9,250.1,332.9z"/>
		<g id="XMLID_611_">
			<path id="XMLID_714_" class="st27" d="M508.5,252.1c0,5.9,4.8,10.6,10.6,10.6c5.9,0,10.6-4.8,10.6-10.6c0-5.9-4.8-10.6-10.6-10.6
				C513.3,241.4,508.5,246.2,508.5,252.1z M512.8,252.1c0-3.5,2.8-6.3,6.3-6.3c3.5,0,6.3,2.8,6.3,6.3c0,3.5-2.8,6.3-6.3,6.3
				C515.6,258.4,512.8,255.6,512.8,252.1z"/>
		</g>
		<g id="XMLID_22_">
			<path id="XMLID_73_" class="st12" d="M219.4,251.9c0,24.9-20.2,45.2-45.2,45.2c-25,0-45.2-20.2-45.2-45.2
				c0-25,20.2-45.2,45.2-45.2C199.2,206.7,219.4,227,219.4,251.9z"/>
			<path id="XMLID_337_" class="st24" d="M188.1,257c-1.5-1.4-3.3-1.4-4.7,0c-1.1,1.1-2.2,2.2-3.3,3.3c-0.3,0.3-0.6,0.4-0.9,0.2
				c-0.7-0.4-1.5-0.7-2.2-1.1c-3.2-2-5.9-4.6-8.3-7.6c-1.2-1.5-2.2-3-3-4.8c-0.1-0.4-0.1-0.6,0.2-0.9c1.1-1.1,2.2-2.2,3.3-3.3
				c1.5-1.5,1.5-3.3,0-4.9c-0.9-0.9-1.7-1.7-2.6-2.6c-0.9-0.9-1.8-1.8-2.7-2.7c-1.5-1.4-3.3-1.4-4.8,0c-1.1,1.1-2.2,2.2-3.3,3.3
				c-1,1-1.6,2.2-1.7,3.7c-0.2,2.3,0.4,4.5,1.2,6.7c1.6,4.4,4.2,8.3,7.2,12c4.1,4.9,9,8.7,14.7,11.5c2.6,1.3,5.3,2.2,8.2,2.4
				c2,0.1,3.7-0.4,5.1-2c1-1.1,2-2,3-3c1.5-1.5,1.5-3.3,0-4.8C191.7,260.6,189.9,258.8,188.1,257z"/>
		</g>
		<g id="XMLID_890_">
			<g id="XMLID_908_">
				<g id="XMLID_916_">
					<g>
						<path id="XMLID_47_" class="st26" d="M610.8,500.1c0,4-3.2,7.2-7.2,7.2H576c-4,0-7.2-3.2-7.2-7.2v-36h42V500.1z"/>
					</g>
				</g>
				<path id="XMLID_85_" class="st26" d="M622.7,470.3c-2.9-2.4-6.8-3.5-11.9-3.4v6c3.3-0.1,5.9,0.5,7.5,1.8
					c1.8,1.5,2.6,4.1,2.3,7.7c-0.3,4.1-2.5,9.3-6.1,11.5c-1.2,0.7-2.4,1-3.7,0.9v5.1c0,0.3,0,0.6-0.1,0.9c2.6,0.1,5.2-0.5,7.5-2
					c5.6-3.5,8.5-10.6,9-16.1C627.6,477.3,626.1,473.1,622.7,470.3z"/>
				<path id="XMLID_912_" class="st6" d="M610.8,466.8v6c0.7,0,1.4,0,2.1,0.1v-6C612.2,466.9,611.5,466.8,610.8,466.8z M610.8,500.1
					c0,0.3,0,0.6-0.1,0.9c0.7,0,1.4,0,2.1-0.1c0-0.3,0.1-0.5,0.1-0.8v-5.4c-0.7,0.2-1.4,0.3-2.1,0.3V500.1z"/>
				<path id="XMLID_20_" class="st19" d="M574.6,507.1c0.5,0.1,1,0.2,1.5,0.2h6.3v-43.2h-7.8V507.1z"/>
			</g>
			<g id="XMLID_900_">
				<g id="XMLID_904_">
					<path id="XMLID_6_" class="st24" d="M587.4,427.9c-0.8,0-1.5,0.7-1.5,1.5c0,0.8,0.7,1.5,1.5,1.5h27.2c2.4,0,4.4,2,4.4,4.4v1.3
						c0,1.2-0.5,2.2-1.3,3.1c-0.8,0.8-1.9,1.3-3.1,1.3h-45c-4.1,0-7.3,2.3-7.3,5.3c0,3,3.2,5.3,7.3,5.3h13.1c1.2,0,2.3,0.4,3.2,1.1
						c0.8,0.6,1.2,1.4,1.2,2.2v4.7c0,0.8,0.7,1.5,1.5,1.5c0.8,0,1.5-0.7,1.5-1.5v-4.7c0-1.7-0.8-3.3-2.2-4.5c-1.4-1.1-3.1-1.7-5-1.7
						h-13.1c-2.5,0-4.4-1.3-4.4-2.4c0-1.1,1.9-2.4,4.4-2.4h45c1.9,0,3.8-0.7,5.1-2.1c1.4-1.4,2.1-3.2,2.1-5.1v-1.3
						c0-4-3.3-7.3-7.3-7.3H587.4z"/>
				</g>
			</g>
		</g>
		<g id="XMLID_75_">
			<path id="XMLID_954_" class="st15" d="M564.2,148.1c0,24.9-20.2,45-45,45c-24.9,0-45-20.2-45-45c0-24.9,20.2-45,45-45
				C544,103.1,564.2,123.2,564.2,148.1z"/>
			<path id="XMLID_951_" class="st10" d="M554.7,148.1c0,19.6-15.9,35.6-35.6,35.6c-19.6,0-35.6-15.9-35.6-35.6
				c0-19.6,15.9-35.6,35.6-35.6C538.8,112.5,554.7,128.5,554.7,148.1z"/>
			<path id="XMLID_948_" class="st18" d="M550.9,148.1c0,17.5-14.2,31.7-31.7,31.7c-17.5,0-31.7-14.2-31.7-31.7
				c0-17.5,14.2-31.7,31.7-31.7C536.7,116.4,550.9,130.6,550.9,148.1z"/>
			<g id="XMLID_944_" class="st22">
				<path id="XMLID_945_" class="st8" d="M506.7,110.1c0.3,1.6-0.7,3.1-2.2,3.6c-3.1,1.1-6,2.7-8.4,4.9c-1.2,1-3,1.2-4.2,0.1l0,0
					c-1.2-1-1.1-3.1,0.4-4.4c3-2.7,6.6-4.7,10.4-6C504.6,107.6,506.4,108.6,506.7,110.1L506.7,110.1z"/>
			</g>
			<g id="XMLID_76_">
				<g id="XMLID_939_" class="st21">
					<g>
						<g id="XMLID_57_">
							<path class="st1" d="M542,135.1l-23.6,11.8c-0.7,0.3-1,1.2-0.7,1.9c0.4,0.7,1.2,1,1.9,0.7l23.6-11.8c0.7-0.4,1-1.2,0.7-1.9
								C543.6,135.1,542.8,134.8,542,135.1z"/>
						</g>
					</g>
				</g>
				<g id="XMLID_934_" class="st21">
					<g>
						<path id="XMLID_59_" class="st1" d="M517.8,130.7l-0.1,16.5c0,0.8,0.6,1.4,1.4,1.4c0.8,0,1.5-0.6,1.5-1.4l0.1-16.5
							c0-0.8-0.6-1.4-1.4-1.4C518.5,129.2,517.8,129.8,517.8,130.7z"/>
					</g>
				</g>
				<path id="XMLID_80_" class="st15" d="M516.9,143.6c-2.4,1.2-3.4,4.2-2.2,6.6c1.2,2.4,4.2,3.4,6.6,2.2c2.4-1.2,3.5-4.2,2.2-6.6
					C522.4,143.4,519.4,142.4,516.9,143.6z"/>
				<path id="XMLID_77_" class="st10" d="M518,145.7c1.3-0.6,2.9-0.1,3.6,1.2c0.6,1.3,0.1,2.9-1.2,3.6c-1.3,0.7-2.9,0.1-3.6-1.2
					C516.1,148,516.7,146.4,518,145.7z"/>
			</g>
		</g>
		<g id="XMLID_78_">
			<g>
				<g id="XMLID_138_">
					<g>
						<path id="XMLID_140_" class="st15" d="M285.3,161.9c0-0.1,0-0.2,0-0.3c0-25.1-23.5-45.4-52.5-45.4s-52.5,20.3-52.5,45.4
							c0,0.1,0,0.2,0,0.3H285.3z"/>
						<path id="XMLID_139_" class="st15" d="M220.6,163.6C220.6,163.6,220.6,163.7,220.6,163.6c0,6.8,5.5,12.3,12.2,12.3
							c6.7,0,12.2-5.5,12.2-12.2c0,0,0-0.1,0-0.1H220.6z"/>
					</g>
				</g>
				<path id="XMLID_136_" class="st15" d="M233.8,78.9v41.2h-2V79.7C232.5,79.4,233.2,79.1,233.8,78.9z"/>
			</g>
		</g>
	</g>
</g>
</svg>
